<svg xmlns="http://www.w3.org/2000/svg" fill="none" viewBox="0 0 100 101"><g clip-path="url(#a)"><path fill="url(#b)" d="M0 33.7C0 6.4 5.9.5 33.2.5h33.6C94.1.5 100 6.4 100 33.7v33.6c0 27.3-5.9 33.2-33.2 33.2H33.2C5.9 100.5 0 94.6 0 67.3V33.7Z"/><path fill="#fff" fill-rule="evenodd" d="M72.3 15.5c.4 0 2 .2 2 2.1.1-1.9 1.7-2 2-2h.1c-.4 0-2-.2-2-2.1-.1 1.9-1.7 2-2 2h-.1Zm0 0h4-4ZM64 21.1h.2c.8 0 4.2.3 4.4 4.7.2-4.4 3.6-4.7 4.4-4.7h.2-.2c-.8 0-4.2-.4-4.4-4.7-.2 4.3-3.6 4.7-4.4 4.7H64Zm.2 0H73h-8.8Zm4.4 7.6h.3c1.6 0 8.5.7 8.9 9.4.4-8.7 7.3-9.4 8.9-9.4h.3-.3c-1.6 0-8.5-.8-8.9-9.5-.4 8.7-7.3 9.4-8.9 9.5h-.3Zm.3 0h17.8-17.8Zm3.3 23.9-2.1-.5V49.2a19.7 19.7 0 0 0-39.4 0v2.2l.1.7-2.2.5a8.2 8.2 0 0 0-6.5 9.2l.9 6a8.2 8.2 0 0 0 6.5 7l3.1.6 1 .1c1.4 0 2.7-.5 3.6-1.5a5.2 5.2 0 0 0 1.7-4.4l-1.7-16.3a2.2 2.2 0 0 0-2.1-2v-2.1a15.3 15.3 0 0 1 30.6 0v2.2a2.2 2.2 0 0 0-2.1 1.9L62.2 66h-.3a7 7 0 0 1-6-.3l.4-.4a2.2 2.2 0 1 0-3.1-3l-4.4 4.3a2.2 2.2 0 1 0 3.1 3l.8-.7c1.9 1.3 4.1 2 6.4 2 .9 0 1.8 0 2.6-.3.1 1.3.7 2.5 1.7 3.3a5.4 5.4 0 0 0 4.7 1.3l3-.6a8.2 8.2 0 0 0 6.6-6.8l1.1-6.1a8.2 8.2 0 0 0-6.6-9.2ZM34.3 70.8a1 1 0 0 1-.9.2l-3-.6a3.9 3.9 0 0 1-3.2-3.2l-.9-6a3.8 3.8 0 0 1 3.1-4.3l3.6-.7L34.6 70a.9.9 0 0 1-.3.7Zm40.1-9.7-.8 6.1a3.8 3.8 0 0 1-3.2 3.2l-3.1.7a1 1 0 0 1-.9-.3.9.9 0 0 1-.3-.7l1.6-14 3.6.8a3.8 3.8 0 0 1 3.1 4.2Z" clip-rule="evenodd"/></g><defs><linearGradient id="b" x1="80.5" x2="45" y1="-5.5" y2="100.5" gradientUnits="userSpaceOnUse"><stop stop-color="#25D0F5"/><stop offset="1" stop-color="#A608FF"/></linearGradient><clipPath id="a"><path fill="#fff" d="M0 .5h100v100H0z"/></clipPath></defs></svg>